<svg width="1962" height="335" viewBox="0 0 1962 335" fill="none" xmlns="http://www.w3.org/2000/svg">
<path d="M1865.31 289.513C1864.41 287.473 1859.66 283.332 1857.24 283.332C1855.38 283.332 1834.38 302.642 1827.59 305.995C1794.63 322.296 1755.65 314.56 1731.04 287.513C1713.96 268.748 1700.83 231.865 1706.3 206.858L1871.42 204.879C1874.88 201.93 1874.46 197.789 1874.34 193.628C1872.5 136.788 1842.17 84.6339 1779.12 89.4211C1674.46 97.3997 1657 265.557 1737.47 317.428C1768.62 337.506 1818.04 336.253 1847.71 314.176C1853.12 310.156 1868.09 295.734 1865.33 289.533L1865.31 289.513ZM1795.29 107.58C1816.12 109.681 1838.14 129.658 1847.03 148.301C1849.13 152.725 1861.81 188.477 1853.26 188.477H1706.1C1711.68 141.353 1745.44 102.53 1795.29 107.58Z" fill="#E2DFF2"/>
<path d="M1148.54 291.896C1147.64 289.856 1142.9 285.715 1140.47 285.715C1138.61 285.715 1117.61 305.025 1110.82 308.378C1077.86 324.679 1038.88 316.942 1014.28 289.896C997.196 271.131 984.062 234.248 989.528 209.241L1154.65 207.262C1158.11 204.313 1157.69 200.172 1157.57 196.011C1155.73 139.171 1125.4 87.0167 1062.35 91.8039C957.693 99.7825 940.234 267.94 1020.7 319.811C1051.86 339.889 1101.27 338.636 1130.94 316.559C1136.35 312.539 1151.33 298.117 1148.56 291.916L1148.54 291.896ZM1078.51 109.963C1099.33 112.064 1121.35 132.04 1130.24 150.684C1132.34 155.108 1145.02 190.86 1136.47 190.86H989.308C994.894 143.736 1028.65 104.913 1078.51 109.963Z" fill="#E2DFF2"/>
<path d="M744.598 90.0679C630.352 103.864 627.749 317.55 746.6 331.325C902.111 349.363 903.132 70.9193 744.598 90.0679ZM820.401 286.726C806.987 301.714 788.006 311.894 767.803 313.429C651.896 322.195 646.55 120.266 750.244 107.884C841.865 96.9558 871.357 229.866 820.401 286.726Z" fill="#E2DFF2"/>
<path d="M1349.7 253.095L1333.77 253.196C1330.66 319.025 1241.65 335.063 1205.89 286.08C1173.11 241.178 1177.51 127.518 1241.46 110.571C1290.46 97.6029 1327.7 124.326 1335.57 173.41H1347.84C1354.91 136.284 1324.66 100.956 1289.72 92.432C1145.92 57.3664 1132.91 292.16 1230.55 325.832C1284.31 344.354 1351.29 316.864 1349.72 253.075L1349.7 253.095Z" fill="#E2DFF2"/>
<path d="M652.457 254.508L636.519 254.609C633.416 320.438 544.398 336.476 508.639 287.493C475.862 242.591 480.267 128.931 544.218 111.984C593.212 99.016 630.453 125.739 638.321 174.823H650.595C657.662 137.697 627.409 102.369 592.471 93.845C448.673 58.7795 435.658 293.573 533.306 327.245C587.065 345.768 654.038 318.277 652.477 254.488L652.457 254.508Z" fill="#E2DFF2"/>
<path d="M1611.43 325.831L1697.75 100.147C1700.17 92.2287 1680.87 95.3596 1680.87 95.3596C1659.79 151.998 1611.39 271.778 1602.7 292.603C1602.22 293.734 1600.62 293.714 1600.18 292.563L1523.07 95.3798C1510.04 95.3596 1504.23 94.5718 1509.24 107.317L1592.33 325.447C1596.9 327.649 1607.61 328.053 1611.43 325.831Z" fill="#E2DFF2"/>
<path d="M1455.36 329.447C1458.3 329.104 1458.82 313.712 1454.8 313.712H1423.14C1400.92 311.107 1399.68 279.394 1399.68 270.304C1399.68 219.807 1399.72 163.916 1400.22 111.803L1446.79 111.742V93.5628H1399.74V35.9955C1394.67 35.9551 1388.99 35.9955 1381.72 35.9955V93.583H1341.68V111.762H1381.72C1381.56 120.973 1381.6 225.402 1381.64 270.405C1381.66 301.552 1385.02 326.619 1420.98 330.073C1426.51 330.599 1450.86 330.013 1455.36 329.488V329.447Z" fill="#E2DFF2"/>
<path d="M883.191 9.47399V322.842C883.191 324.357 883.771 326.175 885.273 326.215C890.178 326.357 893.742 326.215 898.407 326.215C901.371 326.215 900.79 323.024 900.79 321.509L899.589 7.97926C899.589 4.28284 899.489 1.21258 895.825 1.19238C895.304 1.19238 888.436 1.19238 887.936 1.19238C883.431 1.19238 883.191 4.92921 883.191 9.45379V9.47399Z" fill="#E2DFF2"/>
<path d="M957.012 0L947.381 0.141393C945.539 0.343384 944.138 1.07055 944.117 2.94906L943.557 324.154C943.557 324.982 943.937 326.114 944.738 326.114C949.423 326.114 953.868 326.255 957.472 326.215C958.814 326.215 958.954 324.72 958.954 323.367C959.274 296.32 959.995 24.6832 959.114 2.46428C959.074 1.21194 958.233 -0.100995 957.012 0.020199V0Z" fill="#E2DFF2"/>
<path d="M1495.86 95.3398C1492.3 95.461 1482.73 95.5014 1479.85 95.562V325.831H1495.86V95.3398Z" fill="#E2DFF2"/>
<path d="M1473.98 25.7133C1475.56 52.6992 1515.57 35.7926 1499.25 15.3512C1491.48 5.59503 1473.1 10.7256 1473.98 25.7133Z" fill="#E2DFF2"/>
<path d="M124.087 89.0488C54.4645 89.0488 0 143.05 0 209.264C0 275.478 53.9955 330.418 124.087 330.418C194.179 330.418 247.227 275.943 247.227 209.264C247.227 142.585 194.187 89.0488 124.087 89.0488ZM179.251 264.52C164.694 279.329 145.103 287.48 124.087 287.48C103.071 287.48 83.0197 279.329 68.2775 264.52C53.6947 249.877 45.6688 230.417 45.6688 209.729C45.6688 189.041 53.6947 169.23 68.2775 154.526C82.9931 139.681 102.814 131.504 124.087 131.504C145.36 131.504 164.712 139.681 179.251 154.526C193.639 169.221 201.559 188.822 201.559 209.72C201.559 230.619 193.639 249.877 179.251 264.511V264.52Z" fill="#E2DFF2"/>
<path d="M398.996 208.544C398.996 199.758 402.394 190.497 409.671 179.757L469.849 89.0488H415.494L370.72 155.636C365.842 162.89 361.709 170.655 358.67 178.859C358.653 178.921 358.627 178.974 358.609 179.035C358.373 179.669 358.171 180.321 357.952 180.963C357.733 180.321 357.523 179.678 357.295 179.035C357.278 178.974 357.252 178.921 357.234 178.859C354.195 170.646 350.062 162.89 345.185 155.636L300.41 89.0488H246.056L306.233 179.757C313.511 190.488 316.908 199.758 316.908 208.544C316.908 217.33 313.511 226.591 306.233 237.33L246.056 328.074H300.41L345.185 261.46C350.062 254.206 354.195 246.442 357.234 238.237C357.252 238.176 357.278 238.123 357.295 238.07C357.532 237.436 357.733 236.785 357.952 236.142C358.171 236.785 358.381 237.427 358.609 238.07C358.627 238.132 358.653 238.184 358.67 238.237C361.709 246.451 365.842 254.206 370.72 261.46L415.494 328.074H469.849L409.671 237.33C402.394 226.599 398.996 217.33 398.996 208.544Z" fill="#E2DFF2"/>
<path d="M1874 47.9454V43H1908.42V47.9454H1893.98V89H1888.43V47.9454H1874ZM1917 43H1923.64L1939.24 81.1847H1939.77L1955.37 43H1962V89H1956.81V54.0523H1956.35L1942.02 89H1937L1922.65 54.0523H1922.2V89H1917V43Z" fill="#E2DFF2"/>
</svg>
