<svg width="100" height="26" viewBox="0 0 100 26" fill="none" xmlns="http://www.w3.org/2000/svg">
<path d="M9.46773 7.05518C4.15556 7.05518 -6.10352e-05 11.179 -6.10352e-05 16.2355C-6.10352e-05 21.292 4.11977 25.4876 9.46773 25.4876C14.8157 25.4876 18.8633 21.3275 18.8633 16.2355C18.8633 11.1435 14.8164 7.05518 9.46773 7.05518ZM13.6767 20.4552C12.566 21.5862 11.0712 22.2086 9.46773 22.2086C7.86422 22.2086 6.3343 21.5862 5.20949 20.4552C4.09682 19.337 3.48445 17.8509 3.48445 16.271C3.48445 14.6912 4.09682 13.1783 5.20949 12.0554C6.33228 10.9218 7.84464 10.2973 9.46773 10.2973C11.0908 10.2973 12.5674 10.9218 13.6767 12.0554C14.7745 13.1776 15.3788 14.6744 15.3788 16.2704C15.3788 17.8663 14.7745 19.337 13.6767 20.4545V20.4552Z" fill="white"/>
<path d="M29.1568 7.05713C23.5982 7.05713 20.6072 10.9673 20.6072 15.9601L20.6045 25.2483H24.0877L24.0904 16.3092C24.0904 13.132 25.779 10.3736 29.1568 10.3736C32.5346 10.3736 34.3636 13.132 34.3636 16.344L34.3609 25.2483H37.8441L37.8468 15.9253C37.8468 10.9673 34.7856 7.05713 29.1568 7.05713Z" fill="white"/>
<path d="M62.6286 7.05713H59.1454V25.2483H62.6286V7.05713Z" fill="white"/>
<path d="M60.8698 4.57343C62.1364 4.57343 63.1215 3.56106 63.1215 2.30413C63.1215 1.04721 62.1364 0 60.8698 0C59.6032 0 58.583 1.04721 58.583 2.30413C58.583 3.56106 59.6032 4.57343 60.8698 4.57343Z" fill="white"/>
<path d="M71.7588 22.106C69.6834 22.106 68.3459 20.7794 68.3459 18.545V10.0601H74.5688V7.05778H68.3459V2.03076L64.8627 2.03277V18.6515C64.8627 22.5596 67.1495 25.2483 71.4422 25.2483C72.5339 25.2483 73.7033 24.9622 74.5688 24.5033V21.3395C73.7593 21.7992 72.7209 22.106 71.7588 22.106Z" fill="white"/>
<path d="M51.3784 16.1517C51.3784 15.4831 51.6403 14.7782 52.2014 13.9608L56.8411 7.05713H52.6504L49.1983 12.125C48.8222 12.6771 48.5035 13.268 48.2692 13.8925C48.2679 13.8972 48.2659 13.9012 48.2645 13.9059C48.2463 13.9541 48.2308 14.0037 48.2139 14.0526C48.197 14.0037 48.1808 13.9548 48.1632 13.9059C48.1619 13.9012 48.1599 13.8972 48.1585 13.8925C47.9242 13.2674 47.6056 12.6771 47.2295 12.125L43.7774 7.05713H39.5867L44.2264 13.9608C44.7874 14.7776 45.0494 15.4831 45.0494 16.1517C45.0494 16.8204 44.7874 17.5252 44.2264 18.3426L39.5867 25.249H43.7774L47.2295 20.1791C47.6056 19.627 47.9242 19.0361 48.1585 18.4116C48.1599 18.407 48.1619 18.4029 48.1632 18.3989C48.1815 18.3507 48.197 18.3011 48.2139 18.2522C48.2308 18.3011 48.247 18.35 48.2645 18.3989C48.2659 18.4036 48.2679 18.4076 48.2692 18.4116C48.5035 19.0368 48.8222 19.627 49.1983 20.1791L52.6504 25.249H56.8411L52.2014 18.3426C51.6403 17.5259 51.3784 16.8204 51.3784 16.1517Z" fill="white"/>
<path d="M93.4801 15.7865C93.4801 11.0034 90.2434 7.26746 85.0365 7.26746C79.8297 7.26746 76.3107 11.2828 76.3107 16.2053C76.3107 21.4775 80.2125 25.4868 85.4544 25.4868C89.8936 25.4868 93.1344 22.5857 93.4801 19.6209H90.4506C89.4068 21.4668 87.6278 22.4142 85.4193 22.4142C82.323 22.4142 80.0754 20.1154 79.6886 17.1828H93.4801V15.7865ZM79.829 14.9484C80.1808 12.3997 82.0807 10.3749 85.0007 10.3749C87.9208 10.3749 89.8558 12.2255 89.9969 14.9484H79.829Z" fill="white"/>
<path d="M93.4801 7.35938V6.99353H96.0299V7.35938H94.9607V10.3965H94.5494V7.35938H93.4801ZM96.6657 6.99353H97.158L98.3137 9.81831H98.3531L99.5088 6.99353H99.9999V10.3965H99.6152V7.81114H99.5814L98.5194 10.3965H98.1474L97.0842 7.81114H97.051V10.3965H96.6657V6.99353Z" fill="white"/>
</svg>
