<svg width="150" height="26" viewBox="0 0 150 26" fill="none" xmlns="http://www.w3.org/2000/svg">
<path d="M142.608 22.1342C142.539 21.9782 142.176 21.6616 141.991 21.6616C141.849 21.6616 140.243 23.1379 139.724 23.3943C137.205 24.6405 134.224 24.0491 132.343 21.9813C131.037 20.5467 130.033 17.7268 130.451 15.815L143.075 15.6637C143.34 15.4382 143.308 15.1216 143.298 14.8035C143.158 10.4579 140.838 6.47062 136.018 6.83662C128.017 7.4466 126.682 20.3027 132.834 24.2684C135.216 25.8034 138.994 25.7076 141.262 24.0197C141.676 23.7124 142.821 22.6098 142.61 22.1357L142.608 22.1342ZM137.255 8.22492C138.847 8.38552 140.531 9.9128 141.21 11.3382C141.371 11.6764 142.34 14.4097 141.687 14.4097H130.436C130.863 10.8069 133.443 7.83885 137.255 8.22492Z" fill="white"/>
<path d="M87.809 22.3162C87.7401 22.1602 87.3773 21.8436 87.1921 21.8436C87.0498 21.8436 85.444 23.32 84.9251 23.5763C82.4055 24.8225 79.4252 24.2311 77.5439 22.1633C76.2382 20.7287 75.234 17.9088 75.6519 15.997L88.2759 15.8457C88.5407 15.6202 88.5085 15.3036 88.4994 14.9855C88.3585 10.6399 86.0395 6.65263 81.2192 7.01862C73.218 7.62861 71.8832 20.4847 78.0353 24.4504C80.4171 25.9854 84.1949 25.8896 86.4635 24.2017C86.8768 23.8944 88.0218 22.7918 87.8105 22.3177L87.809 22.3162ZM82.4545 8.40692C84.0465 8.56753 85.7303 10.0948 86.4099 11.5202C86.5706 11.8584 87.5396 14.5917 86.886 14.5917H75.6351C76.0621 10.9889 78.643 8.02085 82.4545 8.40692Z" fill="white"/>
<path d="M56.9264 6.88596C48.192 7.9407 47.993 24.2775 57.0795 25.3307C68.9687 26.7098 69.0468 5.42199 56.9264 6.88596ZM62.7218 21.921C61.6962 23.0668 60.245 23.8451 58.7005 23.9625C49.8391 24.6327 49.4304 9.19465 57.3581 8.24801C64.3627 7.41256 66.6175 17.5739 62.7218 21.921Z" fill="white"/>
<path d="M103.188 19.3498L101.97 19.3575C101.733 24.3903 94.927 25.6164 92.1931 21.8716C89.6873 18.4387 90.024 9.74904 94.9132 8.4534C98.6589 7.46198 101.506 9.50505 102.108 13.2576H103.046C103.586 10.4193 101.273 7.71833 98.6023 7.06664C87.6085 4.38579 86.6135 22.3364 94.0789 24.9107C98.189 26.3268 103.309 24.225 103.19 19.3482L103.188 19.3498Z" fill="white"/>
<path d="M49.882 19.4578L48.6636 19.4655C48.4263 24.4983 41.6206 25.7245 38.8867 21.9796C36.3809 18.5467 36.7177 9.85708 41.6069 8.56143C45.3526 7.57001 48.1997 9.61308 48.8013 13.3657H49.7397C50.28 10.5273 47.9671 7.82636 45.2959 7.17468C34.3022 4.49382 33.3072 22.4444 40.7726 25.0187C44.8826 26.4348 50.0029 24.3331 49.8835 19.4563L49.882 19.4578Z" fill="white"/>
<path d="M123.198 24.9106L129.797 7.65644C129.982 7.05109 128.507 7.29045 128.507 7.29045C126.895 11.6206 123.195 20.7781 122.531 22.3703C122.494 22.4567 122.372 22.4552 122.338 22.3672L116.443 7.292C115.446 7.29045 115.003 7.23023 115.385 8.20466L121.738 24.8812C122.087 25.0496 122.906 25.0805 123.198 24.9106Z" fill="white"/>
<path d="M111.266 25.1872C111.491 25.1609 111.531 23.9842 111.223 23.9842H108.803C107.104 23.785 107.009 21.3605 107.009 20.6655C107.009 16.8049 107.012 12.5319 107.05 8.54763L110.611 8.543V7.15316H107.014V2.75198C106.626 2.74889 106.192 2.75198 105.636 2.75198V7.1547H102.575V8.54455H105.636C105.624 9.24873 105.627 17.2326 105.63 20.6733C105.631 23.0545 105.889 24.971 108.638 25.235C109.06 25.2752 110.922 25.2304 111.266 25.1902V25.1872Z" fill="white"/>
<path d="M67.5221 0.724338V24.6822C67.5221 24.798 67.5665 24.937 67.6813 24.9401C68.0563 24.9509 68.3288 24.9401 68.6855 24.9401C68.912 24.9401 68.8676 24.6961 68.8676 24.5802L68.7758 0.610062C68.7758 0.32746 68.7681 0.0927308 68.488 0.0911865C68.4482 0.0911865 67.9231 0.0911865 67.8849 0.0911865C67.5405 0.0911865 67.5221 0.376877 67.5221 0.722794V0.724338Z" fill="white"/>
<path d="M73.1659 0L72.4296 0.0108099C72.2888 0.0262526 72.1817 0.0818464 72.1801 0.225464L72.1373 24.7825C72.1373 24.8458 72.1664 24.9323 72.2276 24.9323C72.5858 24.9323 72.9256 24.9431 73.2011 24.94C73.3037 24.94 73.3144 24.8257 73.3144 24.7222C73.3389 22.6545 73.394 1.8871 73.3267 0.188401C73.3236 0.0926563 73.2593 -0.00772136 73.1659 0.00154427V0Z" fill="white"/>
<path d="M114.363 7.28906C114.09 7.29833 113.359 7.30142 113.138 7.30605V24.9107H114.363V7.28906Z" fill="white"/>
<path d="M112.69 1.96598C112.811 4.02913 115.869 2.73657 114.621 1.17377C114.028 0.427887 112.622 0.820132 112.69 1.96598Z" fill="white"/>
<path d="M9.48678 6.80811C4.16395 6.80811 0 10.9366 0 15.9989C0 21.0611 4.1281 25.2614 9.48678 25.2614C14.8455 25.2614 18.9012 21.0966 18.9012 15.9989C18.9012 10.9011 14.8461 6.80811 9.48678 6.80811ZM13.7042 20.2233C12.5913 21.3556 11.0935 21.9787 9.48678 21.9787C7.88005 21.9787 6.34707 21.3556 5.21999 20.2233C4.1051 19.1038 3.4915 17.6161 3.4915 16.0344C3.4915 14.4528 4.1051 12.9382 5.21999 11.814C6.34504 10.6791 7.86043 10.0539 9.48678 10.0539C11.1131 10.0539 12.5927 10.6791 13.7042 11.814C14.8042 12.9375 15.4097 14.436 15.4097 16.0337C15.4097 17.6315 14.8042 19.1038 13.7042 20.2226V20.2233Z" fill="white"/>
<path d="M30.5042 15.9438C30.5042 15.2721 30.764 14.5641 31.3203 13.743L35.9211 6.80811H31.7656L28.3424 11.8989C27.9695 12.4535 27.6535 13.0471 27.4212 13.6744C27.4199 13.6791 27.4179 13.6831 27.4165 13.6878C27.3985 13.7363 27.3831 13.7861 27.3663 13.8352C27.3496 13.7861 27.3335 13.737 27.3161 13.6878C27.3148 13.6831 27.3128 13.6791 27.3114 13.6744C27.0791 13.0464 26.7631 12.4535 26.3902 11.8989L22.9671 6.80811H18.8115L23.4123 13.743C23.9686 14.5634 24.2284 15.2721 24.2284 15.9438C24.2284 16.6155 23.9686 17.3235 23.4123 18.1446L18.8115 25.0822H22.9671L26.3902 19.9894C26.7631 19.4348 27.0791 18.8412 27.3114 18.214C27.3128 18.2092 27.3148 18.2052 27.3161 18.2012C27.3342 18.1527 27.3496 18.1029 27.3663 18.0538C27.3831 18.1029 27.3991 18.152 27.4165 18.2012C27.4179 18.2059 27.4199 18.2099 27.4212 18.214C27.6535 18.8419 27.9695 19.4348 28.3424 19.9894L31.7656 25.0822H35.9211L31.3203 18.1446C30.764 17.3242 30.5042 16.6155 30.5042 15.9438Z" fill="white"/>
<path d="M143.272 3.66557V3.28748H145.903V3.66557H144.8V6.8043H144.376V3.66557H143.272ZM146.559 3.28748H147.067L148.26 6.2068H148.301L149.493 3.28748H150V6.8043H149.603V4.13245H149.568L148.472 6.8043H148.088L146.991 4.13245H146.957V6.8043H146.559V3.28748Z" fill="white"/>
</svg>
