<svg width="1760" height="478" viewBox="0 0 1760 478" fill="none" xmlns="http://www.w3.org/2000/svg">
<path d="M1561.63 93.6272C1488.56 93.6272 1449.49 145.445 1449.49 211.529V334.518H1495.2V216.223C1495.2 174.186 1517.48 137.619 1561.82 137.619C1606.15 137.619 1630.19 174.186 1630.19 216.616V334.518H1675.9V211.137C1675.9 145.445 1635.66 93.6272 1561.82 93.6272H1561.63Z" fill="#E2DFF2"/>
<path d="M838.048 93.6272C797.416 93.6272 767.134 109.663 748.38 135.472C729.234 109.856 698.567 93.6272 657.35 93.6272C584.289 93.6272 545.219 145.445 545.219 211.529V334.518H590.93V216.223C590.93 174.186 613.201 137.619 657.543 137.619C701.892 137.619 725.917 174.186 725.917 216.616V334.518H771.629V216.223C771.629 174.186 793.899 137.619 838.241 137.619C882.59 137.619 906.615 174.186 906.615 216.616V334.518H952.327V211.137C952.327 145.445 912.087 93.6272 838.241 93.6272H838.048Z" fill="#E2DFF2"/>
<path d="M472.743 239.293C470.988 231.867 470.203 224.041 470.203 216.416V215.053C470.203 148.569 417.073 93.4346 346.937 93.4346C276.808 93.4346 222.7 147.984 222.7 215.053C222.7 282.115 276.808 337.642 346.937 337.642C417.073 337.642 421.76 319.459 444.031 291.303C458.875 313.788 481.924 331.978 512.598 337.642V291.503C491.497 283.292 478.022 262.955 472.743 239.493V239.293ZM424.299 220.132C424.299 220.525 424.299 220.917 424.299 221.309C422.93 240.078 415.311 257.476 402.221 270.973C387.569 286.024 368.038 294.235 346.937 294.235C325.843 294.235 305.72 286.024 291.067 270.973C276.422 256.114 268.411 236.561 268.411 215.638C268.411 194.716 276.422 174.771 291.067 159.911C305.72 144.853 325.643 136.642 346.937 136.642C368.23 136.642 387.569 144.853 402.221 159.911C416.681 174.771 424.492 194.516 424.492 215.638C424.492 236.753 424.492 218.57 424.492 220.132H424.299Z" fill="#E2DFF2"/>
<mask id="mask0_11_175" style="mask-type:luminance" maskUnits="userSpaceOnUse" x="989" y="92" width="250" height="386">
<path d="M989.785 92.7708H1238.14V478H989.785V92.7708Z" fill="white"/>
</mask>
<g mask="url(#mask0_11_175)">
<path d="M1114.08 93.6274C1044.33 93.6274 989.835 148.177 989.835 215.246C989.835 282.315 989.835 218.57 989.835 220.332V477.837H1035.55V310.664C1056.64 327.477 1083.8 337.642 1114.08 337.642C1183.81 337.642 1237.34 282.508 1237.34 215.054C1237.34 147.592 1184.2 93.4348 1114.08 93.4348V93.6274ZM1169.36 270.973C1154.7 286.025 1135.16 294.235 1114.08 294.235C1092.98 294.235 1072.85 286.025 1058.2 270.973C1043.55 256.114 1035.55 236.561 1035.55 215.638C1035.55 194.716 1043.55 174.771 1058.2 159.912C1072.85 144.853 1092.78 136.642 1114.08 136.642C1135.37 136.642 1154.7 144.853 1169.36 159.912C1183.81 174.771 1191.63 194.516 1191.63 215.638C1191.63 236.754 1183.62 256.306 1169.36 270.973Z" fill="#E2DFF2"/>
</g>
<mask id="mask1_11_175" style="mask-type:luminance" maskUnits="userSpaceOnUse" x="1269" y="0" width="48" height="336">
<path d="M1269.19 0H1316.67V335.652H1269.19V0Z" fill="white"/>
</mask>
<g mask="url(#mask1_11_175)">
<path d="M1315.29 0.163818H1269.57V334.517H1315.29V0.163818Z" fill="#E2DFF2"/>
</g>
<path d="M154.518 214.069C154.518 205.273 158.035 195.886 165.268 185.136L226.217 93.8198H171.125L125.806 160.889C120.92 168.122 116.625 175.94 113.693 184.351C113.501 184.936 113.301 185.72 113.108 186.305C112.909 185.72 112.716 184.936 112.524 184.351C109.399 176.14 105.29 168.322 100.411 160.889L55.0919 93.8198H0L60.9485 185.136C68.3744 195.886 71.6915 205.273 71.6915 214.069C71.6915 222.872 68.1747 232.259 60.9485 243.009L0 334.518H55.0919L100.411 267.449C105.29 260.215 109.592 252.397 112.524 243.987C112.716 243.402 112.909 242.617 113.108 242.032C113.301 242.617 113.501 243.402 113.693 243.987C116.818 252.197 120.92 260.023 125.806 267.449L171.125 334.518H226.217L165.268 243.009C157.843 232.259 154.518 222.872 154.518 214.069Z" fill="#E2DFF2"/>
<path d="M1408.08 93.6272H1362.36V334.518H1408.08V93.6272Z" fill="#E2DFF2"/>
<mask id="mask2_11_175" style="mask-type:luminance" maskUnits="userSpaceOnUse" x="1353" y="0" width="63" height="62">
<path d="M1353.19 0H1415.28V61.726H1353.19V0Z" fill="white"/>
</mask>
<g mask="url(#mask2_11_175)">
<path d="M1385.03 0.163818C1368.42 0.163818 1354.94 14.0456 1354.94 30.6666C1354.94 47.2876 1368.42 60.777 1385.03 60.777C1401.63 60.777 1414.53 47.2876 1414.53 30.6666C1414.53 14.0456 1401.63 0.163818 1385.03 0.163818Z" fill="#E2DFF2"/>
</g>
<path d="M1676 98.7081V94H1708.81V98.7081H1695.05V137.792H1689.76V98.7081H1676ZM1717 94H1723.33L1738.2 130.352H1738.71L1753.58 94H1759.9V137.792H1754.95V104.522H1754.52L1740.85 137.792H1736.06L1722.38 104.522H1721.95V137.792H1717V94Z" fill="#E2DFF2"/>
</svg>
