<svg width="1208" height="337" viewBox="0 0 1208 337" fill="none" xmlns="http://www.w3.org/2000/svg">
<path d="M891 98H890.873V184.37C890.873 187.653 900.379 191.072 904.653 186.183C906.774 183.754 947.087 117.966 965.244 92.9023H1020.81C1003.2 125.437 975.246 156.006 957.893 188.131C946.916 208.425 946.797 216.871 957.893 237.045C975.588 269.238 1002.98 299.688 1020.83 332.257H962.696C948.249 306.133 906.243 240.738 904.14 238.687C900.31 234.943 890.89 238.208 890.89 240.789V332.257H843.02V98H843V31H891V98Z" fill="#E2DFF2"/>
<path d="M55.6958 92.9023C73.6645 122.018 92.83 151.151 111.277 180.096L170.244 92.9023H225.809L161.166 191.534C151.369 210.426 152.976 219.025 162.875 237.028C180.571 269.221 207.96 299.671 225.809 332.24H167.68L111.277 245.046C92.0607 276.128 74.5878 303.808 55.6958 332.24H0.131362L61.3549 238.738C72.1429 219.23 73.8697 210.169 63.0645 189.824C46.7884 159.204 18.1514 129.113 2.20008 98.5272C1.20847 96.6124 -0.484121 95.5352 0.131362 92.9023H55.6958Z" fill="#E2DFF2"/>
<path d="M525.002 29.6445V96.3219H605.357V137.354H525.002V257.886C525.002 260.023 529.499 269.786 530.935 272.47C545.655 300.081 581.524 296.234 605.357 282.677V327.128C558.443 347.627 495.22 334.001 481.388 279.274C480.123 274.265 477.131 260.502 477.131 256.177V29.6445H525.002Z" fill="#E2DFF2"/>
<path d="M820.776 162.999H772.905C772.102 162.999 770.016 152.895 766.049 148.484C750.201 130.858 691.559 129.353 686.105 155.699C683.523 168.18 687.524 176.198 698.91 181.43C734.574 197.843 806.056 190.354 822.007 237.849C840.352 292.422 800.38 331.385 748.081 335.66C693.696 340.105 639.089 322.871 631.002 262.178H680.583C683.677 299.739 760.031 301.603 774.358 278.163C788.344 255.288 766.973 244.602 748.337 239.73C711.511 230.121 650.663 228.993 639.738 182.49C621.137 103.246 707.476 79.4304 768.152 98.5275C796.943 107.589 819.682 132.037 820.776 163.017V162.999Z" fill="#E2DFF2"/>
<path d="M1092.61 92.9023H1046.45V332.257H1092.61V92.9023Z" fill="#E2DFF2"/>
<path d="M1061.38 0.975613C1086.12 -4.15342 1101.62 11.4559 1099.52 35.6991C1096.22 73.842 1035.58 69.602 1039.61 27.0824C1040.67 15.8669 1050.09 3.31787 1061.38 0.975613Z" fill="#E2DFF2"/>
<path d="M314.353 93.3978C218.32 103.211 173.544 220.615 236.118 293.738C298.419 366.536 424.832 342.224 450.255 248.106C474.327 158.964 404.299 84.2169 314.353 93.3978ZM324.149 291.19C233.759 283.531 233.16 148.808 319.431 137.781C433.569 123.197 434.919 300.559 324.149 291.19Z" fill="#E2DFF2"/>
<path d="M1120 52.2677V47.3223H1154.42V52.2677H1139.98V93.3223H1134.43V52.2677H1120ZM1163 47.3223H1169.64L1185.24 85.507H1185.77L1201.37 47.3223H1208V93.3223H1202.81V58.3746H1202.35L1188.02 93.3223H1183L1168.65 58.3746H1168.2V93.3223H1163V47.3223Z" fill="#E2DFF2"/>
</svg>
